<?xml version="1.0" encoding="utf-8"?>
<!-- Generator: Adobe Illustrator 24.0.0, SVG Export Plug-In . SVG Version: 6.00 Build 0)  -->
<svg version="1.1" id="레이어_1" xmlns="http://www.w3.org/2000/svg" x="0px"
	 y="0px" viewBox="0 0 100 100" style="enable-background:new 0 0 100 100;" xml:space="preserve">
<style type="text/css">
	.st0{fill:#040000;}
</style>
<g>
	<path class="st0" d="M38.5,6.96H25v13.5h9v50.08c0,4.97-4.03,9-9,9h-9.42v13.5h9.81c12.25-0.2,22.11-10.2,22.11-22.49V15.96v-9
		H38.5z"/>
	<path class="st0" d="M84.37,6.96h-9h-13.5v13.5h9.05v13.79c0,4.81-3.78,8.75-8.54,8.99c-0.15,0.01-0.3,0.01-0.46,0.01h-9.47v13.5
		h9.47c0.13,0,0.26,0,0.39-0.01c12.25-0.2,22.11-10.2,22.11-22.49V6.96H84.37z"/>
</g>
</svg>
